<mxfile host="app.diagrams.net" modified="2023-11-13T16:53:47.081Z" agent="Mozilla/5.0 (Windows NT 10.0; Win64; x64) AppleWebKit/537.36 (KHTML, like Gecko) Chrome/118.0.0.0 Safari/537.36" etag="GQysvK-5NIYf_DP3hPMe" version="22.1.0" type="github">
  <diagram name="P치gina-1" id="TbM-btvtSWsH4579E8Jc">
    <mxGraphModel dx="1766" dy="752" grid="0" gridSize="10" guides="1" tooltips="1" connect="1" arrows="1" fold="1" page="0" pageScale="1" pageWidth="827" pageHeight="1169" math="0" shadow="0">
      <root>
        <mxCell id="0" />
        <mxCell id="1" parent="0" />
        <mxCell id="KxyYfoqDPXcTMxQ-RhAr-1" value="Camioneros" style="shape=table;startSize=30;container=1;collapsible=1;childLayout=tableLayout;fixedRows=1;rowLines=0;fontStyle=1;align=center;resizeLast=1;html=1;" vertex="1" parent="1">
          <mxGeometry x="498" y="313" width="180" height="240" as="geometry" />
        </mxCell>
        <mxCell id="KxyYfoqDPXcTMxQ-RhAr-2" value="" style="shape=tableRow;horizontal=0;startSize=0;swimlaneHead=0;swimlaneBody=0;fillColor=none;collapsible=0;dropTarget=0;points=[[0,0.5],[1,0.5]];portConstraint=eastwest;top=0;left=0;right=0;bottom=1;" vertex="1" parent="KxyYfoqDPXcTMxQ-RhAr-1">
          <mxGeometry y="30" width="180" height="30" as="geometry" />
        </mxCell>
        <mxCell id="KxyYfoqDPXcTMxQ-RhAr-3" value="PK" style="shape=partialRectangle;connectable=0;fillColor=none;top=0;left=0;bottom=0;right=0;fontStyle=1;overflow=hidden;whiteSpace=wrap;html=1;" vertex="1" parent="KxyYfoqDPXcTMxQ-RhAr-2">
          <mxGeometry width="30" height="30" as="geometry">
            <mxRectangle width="30" height="30" as="alternateBounds" />
          </mxGeometry>
        </mxCell>
        <mxCell id="KxyYfoqDPXcTMxQ-RhAr-4" value="IdCamionero" style="shape=partialRectangle;connectable=0;fillColor=none;top=0;left=0;bottom=0;right=0;align=left;spacingLeft=6;fontStyle=5;overflow=hidden;whiteSpace=wrap;html=1;" vertex="1" parent="KxyYfoqDPXcTMxQ-RhAr-2">
          <mxGeometry x="30" width="150" height="30" as="geometry">
            <mxRectangle width="150" height="30" as="alternateBounds" />
          </mxGeometry>
        </mxCell>
        <mxCell id="KxyYfoqDPXcTMxQ-RhAr-5" value="" style="shape=tableRow;horizontal=0;startSize=0;swimlaneHead=0;swimlaneBody=0;fillColor=none;collapsible=0;dropTarget=0;points=[[0,0.5],[1,0.5]];portConstraint=eastwest;top=0;left=0;right=0;bottom=0;" vertex="1" parent="KxyYfoqDPXcTMxQ-RhAr-1">
          <mxGeometry y="60" width="180" height="30" as="geometry" />
        </mxCell>
        <mxCell id="KxyYfoqDPXcTMxQ-RhAr-6" value="uk,nn" style="shape=partialRectangle;connectable=0;fillColor=none;top=0;left=0;bottom=0;right=0;editable=1;overflow=hidden;whiteSpace=wrap;html=1;" vertex="1" parent="KxyYfoqDPXcTMxQ-RhAr-5">
          <mxGeometry width="30" height="30" as="geometry">
            <mxRectangle width="30" height="30" as="alternateBounds" />
          </mxGeometry>
        </mxCell>
        <mxCell id="KxyYfoqDPXcTMxQ-RhAr-7" value="DNI" style="shape=partialRectangle;connectable=0;fillColor=none;top=0;left=0;bottom=0;right=0;align=left;spacingLeft=6;overflow=hidden;whiteSpace=wrap;html=1;" vertex="1" parent="KxyYfoqDPXcTMxQ-RhAr-5">
          <mxGeometry x="30" width="150" height="30" as="geometry">
            <mxRectangle width="150" height="30" as="alternateBounds" />
          </mxGeometry>
        </mxCell>
        <mxCell id="KxyYfoqDPXcTMxQ-RhAr-8" value="" style="shape=tableRow;horizontal=0;startSize=0;swimlaneHead=0;swimlaneBody=0;fillColor=none;collapsible=0;dropTarget=0;points=[[0,0.5],[1,0.5]];portConstraint=eastwest;top=0;left=0;right=0;bottom=0;" vertex="1" parent="KxyYfoqDPXcTMxQ-RhAr-1">
          <mxGeometry y="90" width="180" height="30" as="geometry" />
        </mxCell>
        <mxCell id="KxyYfoqDPXcTMxQ-RhAr-9" value="nn" style="shape=partialRectangle;connectable=0;fillColor=none;top=0;left=0;bottom=0;right=0;editable=1;overflow=hidden;whiteSpace=wrap;html=1;" vertex="1" parent="KxyYfoqDPXcTMxQ-RhAr-8">
          <mxGeometry width="30" height="30" as="geometry">
            <mxRectangle width="30" height="30" as="alternateBounds" />
          </mxGeometry>
        </mxCell>
        <mxCell id="KxyYfoqDPXcTMxQ-RhAr-10" value="Nombre" style="shape=partialRectangle;connectable=0;fillColor=none;top=0;left=0;bottom=0;right=0;align=left;spacingLeft=6;overflow=hidden;whiteSpace=wrap;html=1;" vertex="1" parent="KxyYfoqDPXcTMxQ-RhAr-8">
          <mxGeometry x="30" width="150" height="30" as="geometry">
            <mxRectangle width="150" height="30" as="alternateBounds" />
          </mxGeometry>
        </mxCell>
        <mxCell id="KxyYfoqDPXcTMxQ-RhAr-11" value="" style="shape=tableRow;horizontal=0;startSize=0;swimlaneHead=0;swimlaneBody=0;fillColor=none;collapsible=0;dropTarget=0;points=[[0,0.5],[1,0.5]];portConstraint=eastwest;top=0;left=0;right=0;bottom=0;" vertex="1" parent="KxyYfoqDPXcTMxQ-RhAr-1">
          <mxGeometry y="120" width="180" height="30" as="geometry" />
        </mxCell>
        <mxCell id="KxyYfoqDPXcTMxQ-RhAr-12" value="" style="shape=partialRectangle;connectable=0;fillColor=none;top=0;left=0;bottom=0;right=0;editable=1;overflow=hidden;whiteSpace=wrap;html=1;" vertex="1" parent="KxyYfoqDPXcTMxQ-RhAr-11">
          <mxGeometry width="30" height="30" as="geometry">
            <mxRectangle width="30" height="30" as="alternateBounds" />
          </mxGeometry>
        </mxCell>
        <mxCell id="KxyYfoqDPXcTMxQ-RhAr-13" value="Telefono" style="shape=partialRectangle;connectable=0;fillColor=none;top=0;left=0;bottom=0;right=0;align=left;spacingLeft=6;overflow=hidden;whiteSpace=wrap;html=1;" vertex="1" parent="KxyYfoqDPXcTMxQ-RhAr-11">
          <mxGeometry x="30" width="150" height="30" as="geometry">
            <mxRectangle width="150" height="30" as="alternateBounds" />
          </mxGeometry>
        </mxCell>
        <mxCell id="KxyYfoqDPXcTMxQ-RhAr-17" value="" style="shape=tableRow;horizontal=0;startSize=0;swimlaneHead=0;swimlaneBody=0;fillColor=none;collapsible=0;dropTarget=0;points=[[0,0.5],[1,0.5]];portConstraint=eastwest;top=0;left=0;right=0;bottom=0;" vertex="1" parent="KxyYfoqDPXcTMxQ-RhAr-1">
          <mxGeometry y="150" width="180" height="30" as="geometry" />
        </mxCell>
        <mxCell id="KxyYfoqDPXcTMxQ-RhAr-18" value="nn" style="shape=partialRectangle;connectable=0;fillColor=none;top=0;left=0;bottom=0;right=0;editable=1;overflow=hidden;whiteSpace=wrap;html=1;" vertex="1" parent="KxyYfoqDPXcTMxQ-RhAr-17">
          <mxGeometry width="30" height="30" as="geometry">
            <mxRectangle width="30" height="30" as="alternateBounds" />
          </mxGeometry>
        </mxCell>
        <mxCell id="KxyYfoqDPXcTMxQ-RhAr-19" value="Direcci칩n" style="shape=partialRectangle;connectable=0;fillColor=none;top=0;left=0;bottom=0;right=0;align=left;spacingLeft=6;overflow=hidden;whiteSpace=wrap;html=1;" vertex="1" parent="KxyYfoqDPXcTMxQ-RhAr-17">
          <mxGeometry x="30" width="150" height="30" as="geometry">
            <mxRectangle width="150" height="30" as="alternateBounds" />
          </mxGeometry>
        </mxCell>
        <mxCell id="KxyYfoqDPXcTMxQ-RhAr-20" value="" style="shape=tableRow;horizontal=0;startSize=0;swimlaneHead=0;swimlaneBody=0;fillColor=none;collapsible=0;dropTarget=0;points=[[0,0.5],[1,0.5]];portConstraint=eastwest;top=0;left=0;right=0;bottom=0;" vertex="1" parent="KxyYfoqDPXcTMxQ-RhAr-1">
          <mxGeometry y="180" width="180" height="30" as="geometry" />
        </mxCell>
        <mxCell id="KxyYfoqDPXcTMxQ-RhAr-21" value="nn" style="shape=partialRectangle;connectable=0;fillColor=none;top=0;left=0;bottom=0;right=0;editable=1;overflow=hidden;whiteSpace=wrap;html=1;" vertex="1" parent="KxyYfoqDPXcTMxQ-RhAr-20">
          <mxGeometry width="30" height="30" as="geometry">
            <mxRectangle width="30" height="30" as="alternateBounds" />
          </mxGeometry>
        </mxCell>
        <mxCell id="KxyYfoqDPXcTMxQ-RhAr-22" value="Poblaci칩n" style="shape=partialRectangle;connectable=0;fillColor=none;top=0;left=0;bottom=0;right=0;align=left;spacingLeft=6;overflow=hidden;whiteSpace=wrap;html=1;" vertex="1" parent="KxyYfoqDPXcTMxQ-RhAr-20">
          <mxGeometry x="30" width="150" height="30" as="geometry">
            <mxRectangle width="150" height="30" as="alternateBounds" />
          </mxGeometry>
        </mxCell>
        <mxCell id="KxyYfoqDPXcTMxQ-RhAr-23" value="" style="shape=tableRow;horizontal=0;startSize=0;swimlaneHead=0;swimlaneBody=0;fillColor=none;collapsible=0;dropTarget=0;points=[[0,0.5],[1,0.5]];portConstraint=eastwest;top=0;left=0;right=0;bottom=0;" vertex="1" parent="KxyYfoqDPXcTMxQ-RhAr-1">
          <mxGeometry y="210" width="180" height="30" as="geometry" />
        </mxCell>
        <mxCell id="KxyYfoqDPXcTMxQ-RhAr-24" value="nn" style="shape=partialRectangle;connectable=0;fillColor=none;top=0;left=0;bottom=0;right=0;editable=1;overflow=hidden;whiteSpace=wrap;html=1;" vertex="1" parent="KxyYfoqDPXcTMxQ-RhAr-23">
          <mxGeometry width="30" height="30" as="geometry">
            <mxRectangle width="30" height="30" as="alternateBounds" />
          </mxGeometry>
        </mxCell>
        <mxCell id="KxyYfoqDPXcTMxQ-RhAr-25" value="Salario" style="shape=partialRectangle;connectable=0;fillColor=none;top=0;left=0;bottom=0;right=0;align=left;spacingLeft=6;overflow=hidden;whiteSpace=wrap;html=1;" vertex="1" parent="KxyYfoqDPXcTMxQ-RhAr-23">
          <mxGeometry x="30" width="150" height="30" as="geometry">
            <mxRectangle width="150" height="30" as="alternateBounds" />
          </mxGeometry>
        </mxCell>
        <mxCell id="KxyYfoqDPXcTMxQ-RhAr-26" value="Cami칩nes" style="shape=table;startSize=30;container=1;collapsible=1;childLayout=tableLayout;fixedRows=1;rowLines=0;fontStyle=1;align=center;resizeLast=1;html=1;" vertex="1" parent="1">
          <mxGeometry x="-46" y="334" width="183.69999999999996" height="180" as="geometry" />
        </mxCell>
        <mxCell id="KxyYfoqDPXcTMxQ-RhAr-27" value="" style="shape=tableRow;horizontal=0;startSize=0;swimlaneHead=0;swimlaneBody=0;fillColor=none;collapsible=0;dropTarget=0;points=[[0,0.5],[1,0.5]];portConstraint=eastwest;top=0;left=0;right=0;bottom=1;" vertex="1" parent="KxyYfoqDPXcTMxQ-RhAr-26">
          <mxGeometry y="30" width="183.69999999999996" height="30" as="geometry" />
        </mxCell>
        <mxCell id="KxyYfoqDPXcTMxQ-RhAr-28" value="PK" style="shape=partialRectangle;connectable=0;fillColor=none;top=0;left=0;bottom=0;right=0;fontStyle=1;overflow=hidden;whiteSpace=wrap;html=1;" vertex="1" parent="KxyYfoqDPXcTMxQ-RhAr-27">
          <mxGeometry width="34.50000000000003" height="30" as="geometry">
            <mxRectangle width="34.50000000000003" height="30" as="alternateBounds" />
          </mxGeometry>
        </mxCell>
        <mxCell id="KxyYfoqDPXcTMxQ-RhAr-29" value="IdCami칩n" style="shape=partialRectangle;connectable=0;fillColor=none;top=0;left=0;bottom=0;right=0;align=left;spacingLeft=6;fontStyle=5;overflow=hidden;whiteSpace=wrap;html=1;" vertex="1" parent="KxyYfoqDPXcTMxQ-RhAr-27">
          <mxGeometry x="34.50000000000003" width="149.19999999999993" height="30" as="geometry">
            <mxRectangle width="149.19999999999993" height="30" as="alternateBounds" />
          </mxGeometry>
        </mxCell>
        <mxCell id="KxyYfoqDPXcTMxQ-RhAr-30" value="" style="shape=tableRow;horizontal=0;startSize=0;swimlaneHead=0;swimlaneBody=0;fillColor=none;collapsible=0;dropTarget=0;points=[[0,0.5],[1,0.5]];portConstraint=eastwest;top=0;left=0;right=0;bottom=0;" vertex="1" parent="KxyYfoqDPXcTMxQ-RhAr-26">
          <mxGeometry y="60" width="183.69999999999996" height="30" as="geometry" />
        </mxCell>
        <mxCell id="KxyYfoqDPXcTMxQ-RhAr-31" value="uk,nn" style="shape=partialRectangle;connectable=0;fillColor=none;top=0;left=0;bottom=0;right=0;editable=1;overflow=hidden;whiteSpace=wrap;html=1;" vertex="1" parent="KxyYfoqDPXcTMxQ-RhAr-30">
          <mxGeometry width="34.50000000000003" height="30" as="geometry">
            <mxRectangle width="34.50000000000003" height="30" as="alternateBounds" />
          </mxGeometry>
        </mxCell>
        <mxCell id="KxyYfoqDPXcTMxQ-RhAr-32" value="Matr칤cula" style="shape=partialRectangle;connectable=0;fillColor=none;top=0;left=0;bottom=0;right=0;align=left;spacingLeft=6;overflow=hidden;whiteSpace=wrap;html=1;" vertex="1" parent="KxyYfoqDPXcTMxQ-RhAr-30">
          <mxGeometry x="34.50000000000003" width="149.19999999999993" height="30" as="geometry">
            <mxRectangle width="149.19999999999993" height="30" as="alternateBounds" />
          </mxGeometry>
        </mxCell>
        <mxCell id="KxyYfoqDPXcTMxQ-RhAr-33" value="" style="shape=tableRow;horizontal=0;startSize=0;swimlaneHead=0;swimlaneBody=0;fillColor=none;collapsible=0;dropTarget=0;points=[[0,0.5],[1,0.5]];portConstraint=eastwest;top=0;left=0;right=0;bottom=0;" vertex="1" parent="KxyYfoqDPXcTMxQ-RhAr-26">
          <mxGeometry y="90" width="183.69999999999996" height="30" as="geometry" />
        </mxCell>
        <mxCell id="KxyYfoqDPXcTMxQ-RhAr-34" value="nn" style="shape=partialRectangle;connectable=0;fillColor=none;top=0;left=0;bottom=0;right=0;editable=1;overflow=hidden;whiteSpace=wrap;html=1;" vertex="1" parent="KxyYfoqDPXcTMxQ-RhAr-33">
          <mxGeometry width="34.50000000000003" height="30" as="geometry">
            <mxRectangle width="34.50000000000003" height="30" as="alternateBounds" />
          </mxGeometry>
        </mxCell>
        <mxCell id="KxyYfoqDPXcTMxQ-RhAr-35" value="Tipo" style="shape=partialRectangle;connectable=0;fillColor=none;top=0;left=0;bottom=0;right=0;align=left;spacingLeft=6;overflow=hidden;whiteSpace=wrap;html=1;" vertex="1" parent="KxyYfoqDPXcTMxQ-RhAr-33">
          <mxGeometry x="34.50000000000003" width="149.19999999999993" height="30" as="geometry">
            <mxRectangle width="149.19999999999993" height="30" as="alternateBounds" />
          </mxGeometry>
        </mxCell>
        <mxCell id="KxyYfoqDPXcTMxQ-RhAr-52" value="" style="shape=tableRow;horizontal=0;startSize=0;swimlaneHead=0;swimlaneBody=0;fillColor=none;collapsible=0;dropTarget=0;points=[[0,0.5],[1,0.5]];portConstraint=eastwest;top=0;left=0;right=0;bottom=0;" vertex="1" parent="KxyYfoqDPXcTMxQ-RhAr-26">
          <mxGeometry y="120" width="183.69999999999996" height="30" as="geometry" />
        </mxCell>
        <mxCell id="KxyYfoqDPXcTMxQ-RhAr-53" value="nn" style="shape=partialRectangle;connectable=0;fillColor=none;top=0;left=0;bottom=0;right=0;editable=1;overflow=hidden;whiteSpace=wrap;html=1;" vertex="1" parent="KxyYfoqDPXcTMxQ-RhAr-52">
          <mxGeometry width="34.50000000000003" height="30" as="geometry">
            <mxRectangle width="34.50000000000003" height="30" as="alternateBounds" />
          </mxGeometry>
        </mxCell>
        <mxCell id="KxyYfoqDPXcTMxQ-RhAr-54" value="Modelo" style="shape=partialRectangle;connectable=0;fillColor=none;top=0;left=0;bottom=0;right=0;align=left;spacingLeft=6;overflow=hidden;whiteSpace=wrap;html=1;" vertex="1" parent="KxyYfoqDPXcTMxQ-RhAr-52">
          <mxGeometry x="34.50000000000003" width="149.19999999999993" height="30" as="geometry">
            <mxRectangle width="149.19999999999993" height="30" as="alternateBounds" />
          </mxGeometry>
        </mxCell>
        <mxCell id="KxyYfoqDPXcTMxQ-RhAr-36" value="" style="shape=tableRow;horizontal=0;startSize=0;swimlaneHead=0;swimlaneBody=0;fillColor=none;collapsible=0;dropTarget=0;points=[[0,0.5],[1,0.5]];portConstraint=eastwest;top=0;left=0;right=0;bottom=0;" vertex="1" parent="KxyYfoqDPXcTMxQ-RhAr-26">
          <mxGeometry y="150" width="183.69999999999996" height="30" as="geometry" />
        </mxCell>
        <mxCell id="KxyYfoqDPXcTMxQ-RhAr-37" value="nn" style="shape=partialRectangle;connectable=0;fillColor=none;top=0;left=0;bottom=0;right=0;editable=1;overflow=hidden;whiteSpace=wrap;html=1;" vertex="1" parent="KxyYfoqDPXcTMxQ-RhAr-36">
          <mxGeometry width="34.50000000000003" height="30" as="geometry">
            <mxRectangle width="34.50000000000003" height="30" as="alternateBounds" />
          </mxGeometry>
        </mxCell>
        <mxCell id="KxyYfoqDPXcTMxQ-RhAr-38" value="Potencia" style="shape=partialRectangle;connectable=0;fillColor=none;top=0;left=0;bottom=0;right=0;align=left;spacingLeft=6;overflow=hidden;whiteSpace=wrap;html=1;" vertex="1" parent="KxyYfoqDPXcTMxQ-RhAr-36">
          <mxGeometry x="34.50000000000003" width="149.19999999999993" height="30" as="geometry">
            <mxRectangle width="149.19999999999993" height="30" as="alternateBounds" />
          </mxGeometry>
        </mxCell>
        <mxCell id="KxyYfoqDPXcTMxQ-RhAr-57" value="Asignaci칩nCamiones" style="shape=table;startSize=30;container=1;collapsible=1;childLayout=tableLayout;fixedRows=1;rowLines=0;fontStyle=1;align=center;resizeLast=1;html=1;whiteSpace=wrap;" vertex="1" parent="1">
          <mxGeometry x="225" y="359" width="180" height="120" as="geometry" />
        </mxCell>
        <mxCell id="KxyYfoqDPXcTMxQ-RhAr-58" value="" style="shape=tableRow;horizontal=0;startSize=0;swimlaneHead=0;swimlaneBody=0;fillColor=none;collapsible=0;dropTarget=0;points=[[0,0.5],[1,0.5]];portConstraint=eastwest;top=0;left=0;right=0;bottom=0;html=1;" vertex="1" parent="KxyYfoqDPXcTMxQ-RhAr-57">
          <mxGeometry y="30" width="180" height="30" as="geometry" />
        </mxCell>
        <mxCell id="KxyYfoqDPXcTMxQ-RhAr-59" value="PK,FK1" style="shape=partialRectangle;connectable=0;fillColor=none;top=0;left=0;bottom=0;right=0;fontStyle=1;overflow=hidden;html=1;whiteSpace=wrap;" vertex="1" parent="KxyYfoqDPXcTMxQ-RhAr-58">
          <mxGeometry width="60" height="30" as="geometry">
            <mxRectangle width="60" height="30" as="alternateBounds" />
          </mxGeometry>
        </mxCell>
        <mxCell id="KxyYfoqDPXcTMxQ-RhAr-60" value="IdCamionero" style="shape=partialRectangle;connectable=0;fillColor=none;top=0;left=0;bottom=0;right=0;align=left;spacingLeft=6;fontStyle=5;overflow=hidden;html=1;whiteSpace=wrap;" vertex="1" parent="KxyYfoqDPXcTMxQ-RhAr-58">
          <mxGeometry x="60" width="120" height="30" as="geometry">
            <mxRectangle width="120" height="30" as="alternateBounds" />
          </mxGeometry>
        </mxCell>
        <mxCell id="KxyYfoqDPXcTMxQ-RhAr-61" value="" style="shape=tableRow;horizontal=0;startSize=0;swimlaneHead=0;swimlaneBody=0;fillColor=none;collapsible=0;dropTarget=0;points=[[0,0.5],[1,0.5]];portConstraint=eastwest;top=0;left=0;right=0;bottom=1;html=1;" vertex="1" parent="KxyYfoqDPXcTMxQ-RhAr-57">
          <mxGeometry y="60" width="180" height="30" as="geometry" />
        </mxCell>
        <mxCell id="KxyYfoqDPXcTMxQ-RhAr-62" value="PK,FK2" style="shape=partialRectangle;connectable=0;fillColor=none;top=0;left=0;bottom=0;right=0;fontStyle=1;overflow=hidden;html=1;whiteSpace=wrap;" vertex="1" parent="KxyYfoqDPXcTMxQ-RhAr-61">
          <mxGeometry width="60" height="30" as="geometry">
            <mxRectangle width="60" height="30" as="alternateBounds" />
          </mxGeometry>
        </mxCell>
        <mxCell id="KxyYfoqDPXcTMxQ-RhAr-63" value="IdCamion" style="shape=partialRectangle;connectable=0;fillColor=none;top=0;left=0;bottom=0;right=0;align=left;spacingLeft=6;fontStyle=5;overflow=hidden;html=1;whiteSpace=wrap;" vertex="1" parent="KxyYfoqDPXcTMxQ-RhAr-61">
          <mxGeometry x="60" width="120" height="30" as="geometry">
            <mxRectangle width="120" height="30" as="alternateBounds" />
          </mxGeometry>
        </mxCell>
        <mxCell id="KxyYfoqDPXcTMxQ-RhAr-64" value="" style="shape=tableRow;horizontal=0;startSize=0;swimlaneHead=0;swimlaneBody=0;fillColor=none;collapsible=0;dropTarget=0;points=[[0,0.5],[1,0.5]];portConstraint=eastwest;top=0;left=0;right=0;bottom=0;html=1;" vertex="1" parent="KxyYfoqDPXcTMxQ-RhAr-57">
          <mxGeometry y="90" width="180" height="30" as="geometry" />
        </mxCell>
        <mxCell id="KxyYfoqDPXcTMxQ-RhAr-65" value="nn" style="shape=partialRectangle;connectable=0;fillColor=none;top=0;left=0;bottom=0;right=0;editable=1;overflow=hidden;html=1;whiteSpace=wrap;" vertex="1" parent="KxyYfoqDPXcTMxQ-RhAr-64">
          <mxGeometry width="60" height="30" as="geometry">
            <mxRectangle width="60" height="30" as="alternateBounds" />
          </mxGeometry>
        </mxCell>
        <mxCell id="KxyYfoqDPXcTMxQ-RhAr-66" value="Fecha" style="shape=partialRectangle;connectable=0;fillColor=none;top=0;left=0;bottom=0;right=0;align=left;spacingLeft=6;overflow=hidden;html=1;whiteSpace=wrap;" vertex="1" parent="KxyYfoqDPXcTMxQ-RhAr-64">
          <mxGeometry x="60" width="120" height="30" as="geometry">
            <mxRectangle width="120" height="30" as="alternateBounds" />
          </mxGeometry>
        </mxCell>
        <mxCell id="KxyYfoqDPXcTMxQ-RhAr-70" style="edgeStyle=orthogonalEdgeStyle;rounded=0;orthogonalLoop=1;jettySize=auto;html=1;startArrow=ERone;startFill=0;endArrow=ERzeroToMany;endFill=0;" edge="1" parent="1" source="KxyYfoqDPXcTMxQ-RhAr-27" target="KxyYfoqDPXcTMxQ-RhAr-58">
          <mxGeometry relative="1" as="geometry" />
        </mxCell>
        <mxCell id="KxyYfoqDPXcTMxQ-RhAr-71" style="edgeStyle=orthogonalEdgeStyle;rounded=0;orthogonalLoop=1;jettySize=auto;html=1;startArrow=ERone;startFill=0;endArrow=ERzeroToMany;endFill=0;" edge="1" parent="1" source="KxyYfoqDPXcTMxQ-RhAr-2" target="KxyYfoqDPXcTMxQ-RhAr-61">
          <mxGeometry relative="1" as="geometry" />
        </mxCell>
        <mxCell id="KxyYfoqDPXcTMxQ-RhAr-72" value="Paquetes" style="shape=table;startSize=30;container=1;collapsible=1;childLayout=tableLayout;fixedRows=1;rowLines=0;fontStyle=1;align=center;resizeLast=1;html=1;" vertex="1" parent="1">
          <mxGeometry x="832" y="282" width="180" height="210" as="geometry" />
        </mxCell>
        <mxCell id="KxyYfoqDPXcTMxQ-RhAr-73" value="" style="shape=tableRow;horizontal=0;startSize=0;swimlaneHead=0;swimlaneBody=0;fillColor=none;collapsible=0;dropTarget=0;points=[[0,0.5],[1,0.5]];portConstraint=eastwest;top=0;left=0;right=0;bottom=1;" vertex="1" parent="KxyYfoqDPXcTMxQ-RhAr-72">
          <mxGeometry y="30" width="180" height="30" as="geometry" />
        </mxCell>
        <mxCell id="KxyYfoqDPXcTMxQ-RhAr-74" value="PK" style="shape=partialRectangle;connectable=0;fillColor=none;top=0;left=0;bottom=0;right=0;fontStyle=1;overflow=hidden;whiteSpace=wrap;html=1;" vertex="1" parent="KxyYfoqDPXcTMxQ-RhAr-73">
          <mxGeometry width="42.291666666666664" height="30" as="geometry">
            <mxRectangle width="42.291666666666664" height="30" as="alternateBounds" />
          </mxGeometry>
        </mxCell>
        <mxCell id="KxyYfoqDPXcTMxQ-RhAr-75" value="IdPaquete" style="shape=partialRectangle;connectable=0;fillColor=none;top=0;left=0;bottom=0;right=0;align=left;spacingLeft=6;fontStyle=5;overflow=hidden;whiteSpace=wrap;html=1;" vertex="1" parent="KxyYfoqDPXcTMxQ-RhAr-73">
          <mxGeometry x="42.291666666666664" width="137.70833333333334" height="30" as="geometry">
            <mxRectangle width="137.70833333333334" height="30" as="alternateBounds" />
          </mxGeometry>
        </mxCell>
        <mxCell id="KxyYfoqDPXcTMxQ-RhAr-76" value="" style="shape=tableRow;horizontal=0;startSize=0;swimlaneHead=0;swimlaneBody=0;fillColor=none;collapsible=0;dropTarget=0;points=[[0,0.5],[1,0.5]];portConstraint=eastwest;top=0;left=0;right=0;bottom=0;" vertex="1" parent="KxyYfoqDPXcTMxQ-RhAr-72">
          <mxGeometry y="60" width="180" height="30" as="geometry" />
        </mxCell>
        <mxCell id="KxyYfoqDPXcTMxQ-RhAr-77" value="fk, nn" style="shape=partialRectangle;connectable=0;fillColor=none;top=0;left=0;bottom=0;right=0;editable=1;overflow=hidden;whiteSpace=wrap;html=1;" vertex="1" parent="KxyYfoqDPXcTMxQ-RhAr-76">
          <mxGeometry width="42.291666666666664" height="30" as="geometry">
            <mxRectangle width="42.291666666666664" height="30" as="alternateBounds" />
          </mxGeometry>
        </mxCell>
        <mxCell id="KxyYfoqDPXcTMxQ-RhAr-78" value="IdCamionero" style="shape=partialRectangle;connectable=0;fillColor=none;top=0;left=0;bottom=0;right=0;align=left;spacingLeft=6;overflow=hidden;whiteSpace=wrap;html=1;" vertex="1" parent="KxyYfoqDPXcTMxQ-RhAr-76">
          <mxGeometry x="42.291666666666664" width="137.70833333333334" height="30" as="geometry">
            <mxRectangle width="137.70833333333334" height="30" as="alternateBounds" />
          </mxGeometry>
        </mxCell>
        <mxCell id="KxyYfoqDPXcTMxQ-RhAr-111" value="" style="shape=tableRow;horizontal=0;startSize=0;swimlaneHead=0;swimlaneBody=0;fillColor=none;collapsible=0;dropTarget=0;points=[[0,0.5],[1,0.5]];portConstraint=eastwest;top=0;left=0;right=0;bottom=0;" vertex="1" parent="KxyYfoqDPXcTMxQ-RhAr-72">
          <mxGeometry y="90" width="180" height="30" as="geometry" />
        </mxCell>
        <mxCell id="KxyYfoqDPXcTMxQ-RhAr-112" value="fk, nn" style="shape=partialRectangle;connectable=0;fillColor=none;top=0;left=0;bottom=0;right=0;editable=1;overflow=hidden;whiteSpace=wrap;html=1;" vertex="1" parent="KxyYfoqDPXcTMxQ-RhAr-111">
          <mxGeometry width="42.291666666666664" height="30" as="geometry">
            <mxRectangle width="42.291666666666664" height="30" as="alternateBounds" />
          </mxGeometry>
        </mxCell>
        <mxCell id="KxyYfoqDPXcTMxQ-RhAr-113" value="IdProvincia" style="shape=partialRectangle;connectable=0;fillColor=none;top=0;left=0;bottom=0;right=0;align=left;spacingLeft=6;overflow=hidden;whiteSpace=wrap;html=1;" vertex="1" parent="KxyYfoqDPXcTMxQ-RhAr-111">
          <mxGeometry x="42.291666666666664" width="137.70833333333334" height="30" as="geometry">
            <mxRectangle width="137.70833333333334" height="30" as="alternateBounds" />
          </mxGeometry>
        </mxCell>
        <mxCell id="KxyYfoqDPXcTMxQ-RhAr-88" value="" style="shape=tableRow;horizontal=0;startSize=0;swimlaneHead=0;swimlaneBody=0;fillColor=none;collapsible=0;dropTarget=0;points=[[0,0.5],[1,0.5]];portConstraint=eastwest;top=0;left=0;right=0;bottom=0;" vertex="1" parent="KxyYfoqDPXcTMxQ-RhAr-72">
          <mxGeometry y="120" width="180" height="30" as="geometry" />
        </mxCell>
        <mxCell id="KxyYfoqDPXcTMxQ-RhAr-89" value="nn" style="shape=partialRectangle;connectable=0;fillColor=none;top=0;left=0;bottom=0;right=0;editable=1;overflow=hidden;whiteSpace=wrap;html=1;" vertex="1" parent="KxyYfoqDPXcTMxQ-RhAr-88">
          <mxGeometry width="42.291666666666664" height="30" as="geometry">
            <mxRectangle width="42.291666666666664" height="30" as="alternateBounds" />
          </mxGeometry>
        </mxCell>
        <mxCell id="KxyYfoqDPXcTMxQ-RhAr-90" value="Descripci칩n" style="shape=partialRectangle;connectable=0;fillColor=none;top=0;left=0;bottom=0;right=0;align=left;spacingLeft=6;overflow=hidden;whiteSpace=wrap;html=1;" vertex="1" parent="KxyYfoqDPXcTMxQ-RhAr-88">
          <mxGeometry x="42.291666666666664" width="137.70833333333334" height="30" as="geometry">
            <mxRectangle width="137.70833333333334" height="30" as="alternateBounds" />
          </mxGeometry>
        </mxCell>
        <mxCell id="KxyYfoqDPXcTMxQ-RhAr-79" value="" style="shape=tableRow;horizontal=0;startSize=0;swimlaneHead=0;swimlaneBody=0;fillColor=none;collapsible=0;dropTarget=0;points=[[0,0.5],[1,0.5]];portConstraint=eastwest;top=0;left=0;right=0;bottom=0;" vertex="1" parent="KxyYfoqDPXcTMxQ-RhAr-72">
          <mxGeometry y="150" width="180" height="30" as="geometry" />
        </mxCell>
        <mxCell id="KxyYfoqDPXcTMxQ-RhAr-80" value="nn" style="shape=partialRectangle;connectable=0;fillColor=none;top=0;left=0;bottom=0;right=0;editable=1;overflow=hidden;whiteSpace=wrap;html=1;" vertex="1" parent="KxyYfoqDPXcTMxQ-RhAr-79">
          <mxGeometry width="42.291666666666664" height="30" as="geometry">
            <mxRectangle width="42.291666666666664" height="30" as="alternateBounds" />
          </mxGeometry>
        </mxCell>
        <mxCell id="KxyYfoqDPXcTMxQ-RhAr-81" value="Destinatario" style="shape=partialRectangle;connectable=0;fillColor=none;top=0;left=0;bottom=0;right=0;align=left;spacingLeft=6;overflow=hidden;whiteSpace=wrap;html=1;" vertex="1" parent="KxyYfoqDPXcTMxQ-RhAr-79">
          <mxGeometry x="42.291666666666664" width="137.70833333333334" height="30" as="geometry">
            <mxRectangle width="137.70833333333334" height="30" as="alternateBounds" />
          </mxGeometry>
        </mxCell>
        <mxCell id="KxyYfoqDPXcTMxQ-RhAr-82" value="" style="shape=tableRow;horizontal=0;startSize=0;swimlaneHead=0;swimlaneBody=0;fillColor=none;collapsible=0;dropTarget=0;points=[[0,0.5],[1,0.5]];portConstraint=eastwest;top=0;left=0;right=0;bottom=0;" vertex="1" parent="KxyYfoqDPXcTMxQ-RhAr-72">
          <mxGeometry y="180" width="180" height="30" as="geometry" />
        </mxCell>
        <mxCell id="KxyYfoqDPXcTMxQ-RhAr-83" value="nn" style="shape=partialRectangle;connectable=0;fillColor=none;top=0;left=0;bottom=0;right=0;editable=1;overflow=hidden;whiteSpace=wrap;html=1;" vertex="1" parent="KxyYfoqDPXcTMxQ-RhAr-82">
          <mxGeometry width="42.291666666666664" height="30" as="geometry">
            <mxRectangle width="42.291666666666664" height="30" as="alternateBounds" />
          </mxGeometry>
        </mxCell>
        <mxCell id="KxyYfoqDPXcTMxQ-RhAr-84" value="Direcci칩nDestino" style="shape=partialRectangle;connectable=0;fillColor=none;top=0;left=0;bottom=0;right=0;align=left;spacingLeft=6;overflow=hidden;whiteSpace=wrap;html=1;" vertex="1" parent="KxyYfoqDPXcTMxQ-RhAr-82">
          <mxGeometry x="42.291666666666664" width="137.70833333333334" height="30" as="geometry">
            <mxRectangle width="137.70833333333334" height="30" as="alternateBounds" />
          </mxGeometry>
        </mxCell>
        <mxCell id="KxyYfoqDPXcTMxQ-RhAr-91" style="edgeStyle=orthogonalEdgeStyle;rounded=0;orthogonalLoop=1;jettySize=auto;html=1;startArrow=ERzeroToMany;startFill=0;endArrow=ERone;endFill=0;" edge="1" parent="1" source="KxyYfoqDPXcTMxQ-RhAr-76" target="KxyYfoqDPXcTMxQ-RhAr-2">
          <mxGeometry relative="1" as="geometry" />
        </mxCell>
        <mxCell id="KxyYfoqDPXcTMxQ-RhAr-92" value="Provincias" style="shape=table;startSize=30;container=1;collapsible=1;childLayout=tableLayout;fixedRows=1;rowLines=0;fontStyle=1;align=center;resizeLast=1;html=1;" vertex="1" parent="1">
          <mxGeometry x="853" y="625" width="180" height="90" as="geometry" />
        </mxCell>
        <mxCell id="KxyYfoqDPXcTMxQ-RhAr-93" value="" style="shape=tableRow;horizontal=0;startSize=0;swimlaneHead=0;swimlaneBody=0;fillColor=none;collapsible=0;dropTarget=0;points=[[0,0.5],[1,0.5]];portConstraint=eastwest;top=0;left=0;right=0;bottom=1;" vertex="1" parent="KxyYfoqDPXcTMxQ-RhAr-92">
          <mxGeometry y="30" width="180" height="30" as="geometry" />
        </mxCell>
        <mxCell id="KxyYfoqDPXcTMxQ-RhAr-94" value="PK" style="shape=partialRectangle;connectable=0;fillColor=none;top=0;left=0;bottom=0;right=0;fontStyle=1;overflow=hidden;whiteSpace=wrap;html=1;" vertex="1" parent="KxyYfoqDPXcTMxQ-RhAr-93">
          <mxGeometry width="38.79166666666663" height="30" as="geometry">
            <mxRectangle width="38.79166666666663" height="30" as="alternateBounds" />
          </mxGeometry>
        </mxCell>
        <mxCell id="KxyYfoqDPXcTMxQ-RhAr-95" value="IdProvincia" style="shape=partialRectangle;connectable=0;fillColor=none;top=0;left=0;bottom=0;right=0;align=left;spacingLeft=6;fontStyle=5;overflow=hidden;whiteSpace=wrap;html=1;" vertex="1" parent="KxyYfoqDPXcTMxQ-RhAr-93">
          <mxGeometry x="38.79166666666663" width="141.20833333333337" height="30" as="geometry">
            <mxRectangle width="141.20833333333337" height="30" as="alternateBounds" />
          </mxGeometry>
        </mxCell>
        <mxCell id="KxyYfoqDPXcTMxQ-RhAr-96" value="" style="shape=tableRow;horizontal=0;startSize=0;swimlaneHead=0;swimlaneBody=0;fillColor=none;collapsible=0;dropTarget=0;points=[[0,0.5],[1,0.5]];portConstraint=eastwest;top=0;left=0;right=0;bottom=0;" vertex="1" parent="KxyYfoqDPXcTMxQ-RhAr-92">
          <mxGeometry y="60" width="180" height="30" as="geometry" />
        </mxCell>
        <mxCell id="KxyYfoqDPXcTMxQ-RhAr-97" value="uk, nn" style="shape=partialRectangle;connectable=0;fillColor=none;top=0;left=0;bottom=0;right=0;editable=1;overflow=hidden;whiteSpace=wrap;html=1;" vertex="1" parent="KxyYfoqDPXcTMxQ-RhAr-96">
          <mxGeometry width="38.79166666666663" height="30" as="geometry">
            <mxRectangle width="38.79166666666663" height="30" as="alternateBounds" />
          </mxGeometry>
        </mxCell>
        <mxCell id="KxyYfoqDPXcTMxQ-RhAr-98" value="Nombre" style="shape=partialRectangle;connectable=0;fillColor=none;top=0;left=0;bottom=0;right=0;align=left;spacingLeft=6;overflow=hidden;whiteSpace=wrap;html=1;" vertex="1" parent="KxyYfoqDPXcTMxQ-RhAr-96">
          <mxGeometry x="38.79166666666663" width="141.20833333333337" height="30" as="geometry">
            <mxRectangle width="141.20833333333337" height="30" as="alternateBounds" />
          </mxGeometry>
        </mxCell>
        <mxCell id="KxyYfoqDPXcTMxQ-RhAr-115" style="edgeStyle=orthogonalEdgeStyle;rounded=0;orthogonalLoop=1;jettySize=auto;html=1;startArrow=ERzeroToMany;startFill=0;endArrow=ERone;endFill=0;" edge="1" parent="1" source="KxyYfoqDPXcTMxQ-RhAr-111" target="KxyYfoqDPXcTMxQ-RhAr-93">
          <mxGeometry relative="1" as="geometry" />
        </mxCell>
      </root>
    </mxGraphModel>
  </diagram>
</mxfile>
